<svg xmlns="http://www.w3.org/2000/svg" viewBox="0 0 64 64" width="64" height="64">
  <rect width="64" height="64" rx="14" fill="#16a34a"/>
  <g stroke="#ffffff" stroke-width="3.5" stroke-linecap="round" fill="none">
    <!-- stem -->
    <path d="M32 52 V26"/>
    <!-- grain pairs -->
    <path d="M32 26 q-9 -3 -11 -12 q9 1 11 9"/>
    <path d="M32 26 q9 -3 11 -12 q-9 1 -11 9"/>
    <path d="M32 34 q-9 -3 -11 -12 q9 1 11 9"/>
    <path d="M32 34 q9 -3 11 -12 q-9 1 -11 9"/>
    <path d="M32 42 q-9 -3 -11 -12 q9 1 11 9"/>
    <path d="M32 42 q9 -3 11 -12 q-9 1 -11 9"/>
  </g>
</svg>
